<svg width="223" height="31" viewBox="0 0 223 31" fill="none" xmlns="http://www.w3.org/2000/svg">
<path d="M48.6725 26.8871C44.2313 26.8871 40.2703 24.2464 38.5298 20.1653C36.7894 16.0842 37.7496 11.343 40.8704 8.22213C43.9913 5.1013 48.6725 4.14104 52.8136 5.82149C56.8947 7.50194 59.5954 11.523 59.5954 15.9042C59.5354 21.9658 54.6741 26.8871 48.6725 26.8871ZM48.6725 0.9602C42.5509 0.900184 37.0894 4.56116 34.7488 10.1426C32.4082 15.7241 33.6685 22.2058 37.9297 26.527C42.1908 30.8481 48.6725 32.1085 54.314 29.8279C59.9555 27.5473 63.6165 22.0258 63.6165 15.9642C63.5565 7.68198 56.8947 1.02022 48.6725 0.9602Z" fill="#4A60A1"/>
<path d="M104.067 1.80054C103.947 1.80054 103.827 1.86055 103.707 1.98058L88.3432 22.8661L72.9791 1.98058C72.9191 1.86055 72.7991 1.80054 72.619 1.80054C72.379 1.80054 72.1989 1.98058 72.1989 2.22065V30.068H76.28V13.6237L88.1031 29.5879C88.1632 29.6479 88.2232 29.7079 88.3432 29.7079C88.4632 29.7079 88.5233 29.6479 88.5833 29.5879L100.406 13.6237V30.068H104.487V2.22065C104.487 2.10062 104.427 1.98058 104.367 1.92057C104.307 1.86055 104.187 1.80054 104.067 1.80054Z" fill="#4A60A1"/>
<path d="M129.394 15.8443H119.912V5.88162H129.394C132.155 5.88162 134.376 8.10221 134.376 10.8629C134.376 13.6237 132.095 15.8443 129.394 15.8443ZM129.394 1.80054H115.831V30.068H119.912V19.9854H129.394C134.376 19.9854 138.457 15.9043 138.457 10.923C138.457 5.94164 134.376 1.80054 129.394 1.80054Z" fill="#4A60A1"/>
<path d="M15.064 26.8872C9.96264 26.8872 5.46145 23.3462 4.32115 18.3649C3.18084 13.3836 5.70151 8.22223 10.3227 6.06166C15.004 3.90109 20.5254 5.22144 23.6463 9.30252L26.5871 6.42175C22.506 1.56046 15.9042 -0.30003 9.90263 1.86054C3.96105 4.02112 0 9.66261 0 15.9643C0 22.266 3.96105 27.9075 9.90263 30.068C15.8442 32.2286 22.506 30.3681 26.527 25.5068L23.5863 22.6261C21.6057 25.3268 18.4249 26.8872 15.064 26.8872Z" fill="#4A60A1"/>
<path d="M186.65 13.3835L183.529 12.6633C180.168 11.9431 179.928 9.66248 179.928 8.94229C179.928 6.60167 181.788 5.28132 184.969 5.28132C188.27 5.28132 190.671 7.50191 191.451 8.28212L194.332 5.46137C191.631 2.64062 188.63 1.26025 185.029 1.26025C179.568 1.26025 175.907 4.32107 175.907 8.88228C175.907 10.3227 175.907 14.7638 183.229 16.5643L186.65 17.3445C189.83 18.2448 191.331 19.7452 191.331 22.0258C191.331 24.6665 188.75 26.527 185.089 26.527C181.188 26.527 178.788 23.8262 178.007 22.926L175.187 25.6867C177.107 27.9073 180.408 30.488 185.089 30.488C190.971 30.488 195.352 26.827 195.352 21.9658C195.412 17.7046 192.411 14.7038 186.65 13.3835Z" fill="#4A60A1"/>
<path d="M214.077 13.3835L210.956 12.6633C207.595 11.9431 207.355 9.66248 207.355 8.94229C207.355 6.60167 209.215 5.28132 212.396 5.28132C215.697 5.28132 218.098 7.50191 218.818 8.28212L221.699 5.46137C218.998 2.64062 215.937 1.26025 212.396 1.26025C206.935 1.26025 203.274 4.32107 203.274 8.88228C203.274 10.3227 203.274 14.7638 210.596 16.5643L214.017 17.3445C217.198 18.2448 218.698 19.7452 218.698 22.0258C218.698 24.6665 216.117 26.527 212.456 26.527C208.555 26.527 206.095 23.8262 205.374 22.926L202.494 25.7468C204.414 27.9673 207.715 30.548 212.396 30.548C218.278 30.548 222.659 26.8871 222.659 22.0258C222.779 17.7646 219.778 14.7038 214.077 13.3835Z" fill="#4A60A1"/>
<path d="M150.279 18.7249L154.961 9.8425L159.642 18.7249H150.279ZM154.961 1.5603C154.781 1.5603 154.661 1.68033 154.601 1.80037L139.777 30.0679H144.398L148.179 22.8059H161.803L165.584 30.0679H170.205L155.321 1.80037C155.261 1.68033 155.141 1.5603 154.961 1.5603Z" fill="#4A60A1"/>
<path d="M42.2511 19.5051L45.1318 22.3858L55.0945 12.3632L52.2137 9.48242L42.2511 19.5051Z" fill="#4A60A1"/>
</svg>
